<svg xmlns="http://www.w3.org/2000/svg" preserveAspectRatio="xMidYMid slice" width="1024" height="1024" viewBox="0 0 1024 1024"><defs><g id="b" fill="#000"><circle cx="24.8" cy="1012.2" r="21.1"/><circle cx="57.5" cy="979.7" r="20"/><circle cx="90" cy="947.1" r="18.3"/><circle cx="122.7" cy="914.5" r="16.7"/><circle cx="155.3" cy="881.9" r="15.1"/><circle cx="187.9" cy="849.2" r="13.6"/><circle cx="220.5" cy="816.6" r="12.3"/><circle cx="253.1" cy="784.2" r="11.1"/><circle cx="285.7" cy="751.4" r="9.9"/><circle cx="318.4" cy="718.8" r="8.6"/><circle cx="351" cy="686.2" r="7.5"/><circle cx="383.6" cy="653.6" r="6.7"/><circle cx="416.1" cy="621" r="5.7"/><circle cx="448.8" cy="588.3" r="5"/><circle cx="481.3" cy="555.8" r="4.2"/><circle cx="514" cy="523.2" r="3.6"/><circle cx="546.6" cy="490.6" r="2.9"/><circle cx="579" cy="457.9" r="2.1"/><circle cx="611.9" cy="425.5" r="1.6"/><circle cx="644.4" cy="392.5" r="1.3"/></g><g id="c" clip-path="url(#a)"><use href="#b" x="488.6" y="489.6"/><use href="#b" x="456" y="457"/><use href="#b" x="423.4" y="424.3"/><use href="#b" x="390.8" y="391.7"/><use href="#b" x="358.2" y="359.1"/><use href="#b" x="325.6" y="326.5"/><use href="#b" x="293" y="293.8"/><use href="#b" x="260.4" y="261.2"/><use href="#b" x="227.8" y="228.6"/><use href="#b" x="195.2" y="196"/><use href="#b" x="162.6" y="163.3"/><use href="#b" x="130" y="130.7"/><use href="#b" x="97.4" y="98.1"/><use href="#b" x="64.8" y="65.5"/><use href="#b" x="32.2" y="32.8"/><use href="#b" x="-.4" y=".2"/><use href="#b" x="-33" y="-32.4"/><use href="#b" x="-65.6" y="-65"/><use href="#b" x="-98.2" y="-97.7"/><use href="#b" x="-130.8" y="-130.3"/><use href="#b" x="-163.4" y="-162.9"/><use href="#b" x="-196" y="-195.5"/><use href="#b" x="-228.6" y="-228.2"/><use href="#b" x="-261.2" y="-260.8"/><use href="#b" x="-293.8" y="-293.4"/><use href="#b" x="-326.4" y="-326.1"/><use href="#b" x="-359" y="-358.7"/><use href="#b" x="-391.6" y="-391.3"/><use href="#b" x="-424.2" y="-423.9"/><use href="#b" x="-456.8" y="-456.6"/><use href="#b" x="-489.4" y="-489.2"/></g><clipPath id="a" clipPathUnits="userSpaceOnUse"><path d="M3.3 1.2h1004v1020.7H3.4Z"/></clipPath></defs><g id="logo-dots-left-ext"><use href="#c"/></g><g id="logo-dots-left-int"><use href="#c" transform="matrix(.7907 0 0 .7907 91 131.8)"/></g><g id="logo-dots-right-ext"><use href="#c" transform="matrix(-.4168 0 0 -.4168 1038.1 427)"/></g><g id="logo-dots-right-int"><use href="#c" transform="matrix(-.8306 0 0 -.8306 966.5 901)"/></g></g></svg>