<svg xmlns="http://www.w3.org/2000/svg" width="1024" height="1024" viewBox="0 0 1024 1024"><defs><clipPath id="a" clipPathUnits="userSpaceOnUse"><path d="M3.3 1.2h1004v1020.7H3.4Z"/></clipPath><g id="b" fill="#000"><circle cx="24.8" cy="1012.2" r="21.1"/><circle cx="57.5" cy="979.7" r="20"/><circle cx="90" cy="947.1" r="18.3"/><circle cx="122.7" cy="914.5" r="16.7"/><circle cx="155.3" cy="881.9" r="15.1"/><circle cx="187.9" cy="849.2" r="13.6"/><circle cx="220.5" cy="816.6" r="12.3"/><circle cx="253.1" cy="784.2" r="11.1"/><circle cx="285.7" cy="751.4" r="9.9"/><circle cx="318.4" cy="718.8" r="8.6"/><circle cx="351" cy="686.2" r="7.5"/><circle cx="383.6" cy="653.6" r="6.7"/><circle cx="416.1" cy="621" r="5.7"/><circle cx="448.8" cy="588.3" r="5"/><circle cx="481.3" cy="555.8" r="4.2"/><circle cx="514" cy="523.2" r="3.6"/><circle cx="546.6" cy="490.6" r="2.9"/><circle cx="579" cy="457.9" r="2.1"/><circle cx="611.9" cy="425.5" r="1.6"/><circle cx="644.4" cy="392.5" r="1.3"/></g></defs><image width="1024" height="988.4" y="17.8" href="/dot.webp" preserveAspectRatio="none"/><g fill="#eceef1"><path d="M664.2 691a33.9 33.9 0 0 0 21.9-21.3c3.8-11 5.4-27.9 5.4-51.9V405.6c1-17.5-.8-35-5.4-51.8a35.1 35.1 0 0 0-21.9-21.3v-1.7h111.9c47.4 0 84 15.3 109.6 45.3 28 35.8 42 80.7 39.3 126 0 39.3-6.5 73.2-20.2 101.5-13 29-32.1 50.8-56.7 66a161 161 0 0 1-87.3 23.5h-97.1zm84.6-36h8.7c31.5.5 61-15 78.6-41 19.6-27.3 30-64.4 30-110.2 2-35.1-7.8-69.8-27.8-98.8a87.8 87.8 0 0 0-73.7-36h-15.8z"/><path d="M374 689.8a32.7 32.7 0 0 0 21.3-21.2c3.8-11 5.5-27.3 5.5-50.8V407.2c0-23.4-1.7-40.3-5.5-51.3a32.7 32.7 0 0 0-21.3-20.7V333h127.7c26.2 0 47.5 3.9 63.8 11a75.5 75.5 0 0 1 35.5 28.3c7.6 11 10.9 24 10.9 37.7 0 19.6-6.6 35.4-20.2 48a83.5 83.5 0 0 1-50.7 21.8c34.3 16.4 58.3 35.5 72 57.3 13 18.2 20.4 39.8 21.3 62.2 0 17.4-5 33.3-14.2 47.4a96.2 96.2 0 0 1-37.7 32.8c-17 8-35.7 11.9-54.5 11.4H374Zm84-33.8h38.2c21.9 0 39.9-6.5 52.4-19a67 67 0 0 0 19.6-50.8c0-16.4-3.8-30.6-10.9-42a137 137 0 0 0-29.4-29.5l-36-27.3c-12.8-9.7-24.2-21-33.9-33.8zm0-272.8c0 12 2.2 23.5 7.7 34.4 5.4 11 12 19 21.3 25.6 8.4 6 18.5 9.3 28.9 9.3 10.9 0 19.6-3.3 26.7-9.8a35 35 0 0 0 11-27.3c0-13.6-6.6-25-18.6-33.8a79.1 79.1 0 0 0-47.5-13.1H458z"/><path d="M157.6 693.1a32.7 32.7 0 0 0 21.8-20.7c3.8-11 5.4-28.4 5.4-51.8V371.8H163c-14.2 0-26.7 4.9-38.2 13.6a75 75 0 0 0-23.4 37.1l-2.8-.5 11.5-92.8c1.6 1.1 5.5 2.8 9.8 3.3 5.5 1 10.4 1 16.4 1h155.5c5.4 0 10.9 0 16.3-1 4.4-.5 7.7-2.2 9.3-3.8L329 422l-2.7.5a75 75 0 0 0-23.5-37c-11-8.8-24-13.7-38.2-13.7h-21.8v248.8c0 23.4 2.2 40.9 6 51.8 3.8 11 10.9 17.5 21.3 20.7v2.2H158.7Z"/></g></svg>