<svg xmlns="http://www.w3.org/2000/svg" preserveAspectRatio="xMidYMid slice" width="1024" height="1024" viewBox="0 0 1024 1024"><defs><style>@keyframes logo-drop{0%{transform:scale(3);opacity:0}}#logo-dots-left-ext,#logo-dots-left-int,#logo-dots-right-ext,#logo-dots-right-int,#logo-dot,#logo-title-the,#logo-title-black,#logo-title-dot,#logo-subtitle{transform-box:fill-box;transform-origin:center;animation:logo-drop .5s 1s both;animation-delay:calc(.25s + var(--delay) * .125s)}#logo-dots-left-ext{--delay:0}#logo-dots-left-int{--delay:1}#logo-dots-right-ext{--delay:2}#logo-dots-right-int{--delay:3}#logo-dot{--delay:4}#logo-title-the{--delay:5}#logo-title-black{--delay:6}#logo-title-dot{--delay:7}#logo-subtitle{--delay:8}</style><g id="b" fill="#000"><circle cx="24.8" cy="1012.2" r="21.1"/><circle cx="57.5" cy="979.7" r="20"/><circle cx="90" cy="947.1" r="18.3"/><circle cx="122.7" cy="914.5" r="16.7"/><circle cx="155.3" cy="881.9" r="15.1"/><circle cx="187.9" cy="849.2" r="13.6"/><circle cx="220.5" cy="816.6" r="12.3"/><circle cx="253.1" cy="784.2" r="11.1"/><circle cx="285.7" cy="751.4" r="9.9"/><circle cx="318.4" cy="718.8" r="8.6"/><circle cx="351" cy="686.2" r="7.5"/><circle cx="383.6" cy="653.6" r="6.7"/><circle cx="416.1" cy="621" r="5.7"/><circle cx="448.8" cy="588.3" r="5"/><circle cx="481.3" cy="555.8" r="4.2"/><circle cx="514" cy="523.2" r="3.6"/><circle cx="546.6" cy="490.6" r="2.9"/><circle cx="579" cy="457.9" r="2.1"/><circle cx="611.9" cy="425.5" r="1.6"/><circle cx="644.4" cy="392.5" r="1.3"/></g><g id="c" clip-path="url(#a)"><use href="#b" x="488.6" y="489.6"/><use href="#b" x="456" y="457"/><use href="#b" x="423.4" y="424.3"/><use href="#b" x="390.8" y="391.7"/><use href="#b" x="358.2" y="359.1"/><use href="#b" x="325.6" y="326.5"/><use href="#b" x="293" y="293.8"/><use href="#b" x="260.4" y="261.2"/><use href="#b" x="227.8" y="228.6"/><use href="#b" x="195.2" y="196"/><use href="#b" x="162.6" y="163.3"/><use href="#b" x="130" y="130.7"/><use href="#b" x="97.4" y="98.1"/><use href="#b" x="64.8" y="65.5"/><use href="#b" x="32.2" y="32.8"/><use href="#b" x="-.4" y=".2"/><use href="#b" x="-33" y="-32.4"/><use href="#b" x="-65.6" y="-65"/><use href="#b" x="-98.2" y="-97.7"/><use href="#b" x="-130.8" y="-130.3"/><use href="#b" x="-163.4" y="-162.9"/><use href="#b" x="-196" y="-195.5"/><use href="#b" x="-228.6" y="-228.2"/><use href="#b" x="-261.2" y="-260.8"/><use href="#b" x="-293.8" y="-293.4"/><use href="#b" x="-326.4" y="-326.1"/><use href="#b" x="-359" y="-358.7"/><use href="#b" x="-391.6" y="-391.3"/><use href="#b" x="-424.2" y="-423.9"/><use href="#b" x="-456.8" y="-456.6"/><use href="#b" x="-489.4" y="-489.2"/></g><clipPath id="a" clipPathUnits="userSpaceOnUse"><path d="M3.3 1.2h1004v1020.7H3.4Z"/></clipPath></defs><!--<path fill="#eceef1" d="M0 0h1024v1024H0Z"/>--><g id="logo-dots-left-ext"><use href="#c"/></g><g id="logo-dots-left-int"><use href="#c" transform="matrix(.7907 0 0 .7907 91 131.8)"/></g><g id="logo-dots-right-ext"><use href="#c" transform="matrix(-.4168 0 0 -.4168 1038.1 427)"/></g><g id="logo-dots-right-int"><use href="#c" transform="matrix(-.8306 0 0 -.8306 966.5 901)"/></g><image id="logo-dot" href="/dot.webp" width="649.2" height="626.6" x="213" y="186.4" preserveAspectRatio="none"/><g fill="#eceef1"><path id="logo-subtitle" d="m577.4 628.5-.8 1.4a31.6 31.6 0 0 1-2 3v.3h1.8l1.5-1.4a27.1 27.1 0 0 0 2.7-3v-.3zm-1 6.4c-2.2 0-4 .5-5.4 1.4a8.1 8.1 0 0 0-3.3 3.8c-.7 1.6-1 3.5-1 5.6 0 2.2.3 4.1 1 5.7a8 8 0 0 0 3.3 3.8c1.4 1 3.2 1.4 5.4 1.4 2.1 0 3.9-.5 5.3-1.4a8.3 8.3 0 0 0 3.3-3.8c.7-1.6 1-3.5 1-5.7 0-2.1-.3-4-1-5.7a8.4 8.4 0 0 0-3.3-3.7 9.8 9.8 0 0 0-5.3-1.4zm-204.5.4a2 2 0 0 0-1.4.6l-1 1a2 2 0 0 0-.5 1.5v15.1c0 .6.1 1 .5 1.5l1 1c.4.3.9.5 1.5.5h5.6c.6 0 1-.2 1.5-.5l1-1c.3-.4.5-.9.5-1.5v-15.1c0-.6-.2-1.1-.6-1.5l-1-1a2 2 0 0 0-1.4-.6zm90.3 0c-.8 0-1.2.4-1.2 1.2v17c0 .5.2 1 .6 1.4l1 1c.4.4.8.6 1.4.6h7.5c.8 0 1.1-.4 1.1-1.2v-.3c0-.8-.3-1.2-1.1-1.2h-6.6c-.8 0-1.2-.4-1.2-1.2v-4.4c0-.8.4-1.2 1.2-1.2h6.6c.8 0 1.1-.4 1.1-1.2v-.3c0-.8-.3-1.2-1.1-1.2h-6.6c-.8 0-1.2-.4-1.2-1.1v-4c0-.8.4-1.2 1.2-1.2h6.6c.8 0 1.1-.4 1.1-1.2v-.3c0-.8-.3-1.2-1.1-1.2zm-143.3 0c-.8 0-1.2.5-1.2 1.3v.3c0 .3.1.6.3.8.2.3.4.4.8.4.3 0 .5 0 .7.3.2.2.3.5.3.8v13.5c0 .4 0 .6-.3.9-.2.2-.4.3-.7.3a1 1 0 0 0-.8.3c-.2.2-.3.5-.3.8v.3c0 .8.4 1.2 1.2 1.2h4.5c.8 0 1.2-.4 1.2-1.2v-.3c0-.3-.1-.6-.3-.8a1 1 0 0 0-.7-.3 1 1 0 0 1-.8-.3c-.2-.3-.3-.5-.3-1v-13.4c0-.3 0-.6.3-.8.1-.2.4-.3.8-.3.6 0 1-.4 1-1.2v-.3c0-.8-.4-1.2-1.2-1.2zm15.2 0a2 2 0 0 0-1.4.7l-1 1a2 2 0 0 0-.6 1.4v15.1c0 .6.2 1 .6 1.5l1 1c.4.3.8.5 1.4.5h5.7c.5 0 1-.2 1.4-.5l1-1c.4-.4.6-.9.6-1.5v-3.7c0-.8-.4-1.2-1.2-1.2h-.3c-.8 0-1.2.4-1.2 1.2v2.9c0 .8-.4 1.2-1.2 1.2h-4c-.7 0-1.1-.4-1.1-1.2v-13.5c0-.8.4-1.1 1.2-1.1h4c.7 0 1.1.3 1.1 1.1v3.2c0 .8.4 1.2 1.2 1.2h.3c.8 0 1.2-.4 1.2-1.2v-4c0-.6-.2-1-.6-1.5l-1-1a2 2 0 0 0-1.4-.5zm73 0c-.8 0-1.2.5-1.2 1.3v.3c0 .3.1.6.3.8.2.3.4.4.8.4.3 0 .5 0 .7.3.2.2.3.5.3.8v13.5c0 .4 0 .6-.3.9-.2.2-.4.3-.7.3a1 1 0 0 0-.8.3c-.2.2-.3.5-.3.8v.3c0 .8.4 1.2 1.2 1.2h4.5c.8 0 1.2-.4 1.2-1.2v-.3c0-.3-.1-.6-.3-.8a1 1 0 0 0-.7-.3 1 1 0 0 1-.8-.3c-.2-.3-.3-.5-.3-1v-13.4c0-.3 0-.6.3-.8.1-.2.4-.3.8-.3.6 0 1-.4 1-1.2v-.3c0-.8-.4-1.2-1.2-1.2zm73.9 0c-.8 0-1.2.5-1.2 1.3v18.7c0 .8.4 1.2 1.2 1.2h.3c.8 0 1.2-.4 1.2-1.2v-10.8l.1-.7c.2-.2.3-.3.5-.3.3 0 .6.2.8.7l5 11.5c.2.5.7.8 1.3.8h.3c.8 0 1.2-.4 1.2-1.2v-18.7c0-.8-.4-1.2-1.2-1.2h-.3c-.8 0-1.2.4-1.2 1.2v10.3l-.1.7c-.1.2-.3.3-.5.3l-.4-.2c-.1-.1-.3-.3-.3-.5l-4.8-11c-.2-.5-.7-.8-1.3-.8zm17.6 0c-.8 0-1.2.5-1.2 1.3v.3c0 .8.4 1.2 1.2 1.2h2.1c.8 0 1.2.3 1.2 1.1v16.1c0 .8.4 1.2 1.1 1.2h.4c.7 0 1.1-.4 1.1-1.2v-16c0-.9.4-1.2 1.2-1.2h2.1c.8 0 1.2-.4 1.2-1.2v-.3c0-.8-.4-1.2-1.2-1.2zm39.2 0a2 2 0 0 0-1.4.7l-1 1a2 2 0 0 0-.6 1.4v15.1c0 .6.2 1 .6 1.5l1 1c.4.3.8.5 1.4.5h5.6c.6 0 1.1-.2 1.5-.5l1-1c.4-.4.5-.9.5-1.5v-3.7c0-.8-.3-1.2-1.1-1.2h-.4c-.7 0-1.1.4-1.1 1.2v2.9c0 .8-.4 1.2-1.2 1.2h-4c-.7 0-1.1-.4-1.1-1.2v-13.5c0-.8.4-1.1 1.2-1.1h4c.7 0 1 .3 1 1.1v3.2c0 .8.5 1.2 1.2 1.2h.4c.8 0 1.1-.4 1.1-1.2v-4c0-.6-.1-1-.5-1.5l-1-1a2 2 0 0 0-1.5-.5zm16.4 0c-.8 0-1.2.5-1.2 1.3v.3c0 .3 0 .6.2.8.2.3.5.4.8.4.4 0 .6 0 .8.3.2.2.3.5.3.8v13.5c0 .4-.1.6-.3.9-.2.2-.4.3-.8.3a1 1 0 0 0-.8.3l-.2.8v.3c0 .8.4 1.2 1.2 1.2h4.4c.8 0 1.2-.4 1.2-1.2v-.3c0-.3 0-.6-.3-.8a1 1 0 0 0-.7-.3 1 1 0 0 1-.8-.3c-.2-.3-.2-.5-.2-1v-13.4c0-.3 0-.6.2-.8.2-.2.5-.3.8-.3.7 0 1-.4 1-1.2v-.3c0-.8-.4-1.2-1.2-1.2zm40.8 0c-.8 0-1.2.5-1.2 1.3v18.7c0 .8.4 1.2 1.2 1.2h.3c.8 0 1.2-.4 1.2-1.2v-10.8c0-.3 0-.6.2-.7.1-.2.3-.3.4-.3.4 0 .6.2.8.7l5 11.5c.3.5.7.8 1.4.8h.3c.8 0 1.2-.4 1.2-1.2v-18.7c0-.8-.4-1.2-1.2-1.2h-.3c-.8 0-1.2.4-1.2 1.2v10.3c0 .3 0 .6-.2.7 0 .2-.2.3-.4.3-.1 0-.3 0-.4-.2l-.4-.5-4.7-11c-.3-.5-.7-.8-1.4-.8zm31 0a2 2 0 0 0-1.5.7l-1 1a2 2 0 0 0-.5 1.4v15.1c0 .6.2 1 .5 1.5l1 1c.4.3.9.5 1.5.5h5.6c.6 0 1-.2 1.5-.5l1-1c.3-.4.5-.9.5-1.5v-3.7c0-.8-.4-1.2-1.1-1.2h-.4c-.8 0-1.1.4-1.1 1.2v2.9c0 .8-.4 1.2-1.2 1.2h-4c-.8 0-1.2-.4-1.2-1.2v-13.5c0-.8.4-1.1 1.2-1.1h4c.8 0 1.2.3 1.2 1.1v3.2c0 .8.3 1.2 1.1 1.2h.4c.7 0 1.1-.4 1.1-1.2v-4c0-.6-.2-1-.6-1.5l-1-1a2 2 0 0 0-1.4-.5zm55.2 0c-.8 0-1.2.5-1.2 1.3v.3c0 .3.1.6.3.8.2.3.5.4.8.4.3 0 .6 0 .7.3.2.2.3.5.3.8v13.5c0 .4 0 .6-.3.9-.1.2-.4.3-.7.3a1 1 0 0 0-.8.3c-.2.2-.3.5-.3.8v.3c0 .8.4 1.2 1.2 1.2h4.5c.8 0 1.2-.4 1.2-1.2v-.3c0-.3-.1-.6-.3-.8a1 1 0 0 0-.7-.3 1 1 0 0 1-.8-.3c-.2-.3-.3-.5-.3-1v-13.4c0-.3.1-.6.3-.8.2-.2.4-.3.8-.3.7 0 1-.4 1-1.2v-.3c0-.8-.4-1.2-1.2-1.2zm13.4 0c-.8 0-1.2.5-1.2 1.3v17c0 .5.2 1 .6 1.4l1 1c.4.3.8.5 1.4.5h7.5c.8 0 1.1-.4 1.1-1.2v-.3c0-.7-.3-1.1-1.1-1.1h-6.6c-.8 0-1.2-.4-1.2-1.2v-16.1c0-.8-.4-1.2-1.2-1.2zm-397.4.1c-.8 0-1.2.4-1.2 1.2v18.7c0 .8.4 1.2 1.2 1.2h.3c.7 0 1.1-.4 1.1-1.2V648c0-.2 0-.4.2-.6.1-.2.3-.2.4-.2l.5.1c0 .2.2.3.3.5l1.8 6c.2.6.6.9 1.4.9h1.1c.7 0 1.1-.4 1.3-1l1.6-5.6c.2-.4.4-.6.8-.6.1 0 .3 0 .4.2l.2.7v7c0 .7.4 1.1 1.1 1.1h.3c.8 0 1.2-.4 1.2-1.2v-18.7c0-.8-.4-1.2-1.2-1.2h-.5c-.6 0-1 .3-1.3 1l-3.8 12.7c0 .3-.2.5-.3.7l-.4.2c-.2 0-.3 0-.5-.2l-.3-.6-4-12.8c-.2-.7-.6-1-1.3-1zm54.2 0c-.8 0-1.2.4-1.2 1.2v18.7c0 .8.4 1.2 1.2 1.2h.3c.8 0 1.2-.4 1.2-1.2V650c0-.7.4-1.1 1.2-1.1h1.3c.8 0 1.2.4 1.2 1.1v3.6c0 .6.2 1 .6 1.5l1 1c.3.3.8.5 1.4.5h1c.8 0 1.2-.4 1.2-1.2v-.3c0-.7-.4-1.1-1.1-1.1h-.3c-.8 0-1.2-.4-1.2-1.2v-2.8c0-.7.1-1.1.3-1.1l.8-.6.9-1c.2-.2.4-.4.4-.6.2-.3.2-.5.2-.8v-7.4c0-.6-.2-1-.6-1.5l-1-1a2 2 0 0 0-1.4-.5zm71 0a2 2 0 0 0-1.5.6l-1 1a2 2 0 0 0-.6 1.4v15.2c0 .5.2 1 .6 1.4l1 1c.3.3.8.5 1.4.5h5.7c.6 0 1-.2 1.4-.5l1-1c.4-.4.6-.9.6-1.5V647c0-.8-.4-1.2-1.2-1.2h-3.4c-.8 0-1.1.4-1.1 1.2v.3c0 .8.3 1.2 1.1 1.2h.7c.8 0 1.2.4 1.2 1.2v3c0 .9-.4 1.3-1.2 1.3h-4c-.7 0-1.1-.4-1.1-1.2v-13.5c0-.7.4-1.1 1.2-1.1h4c.7 0 1.1.4 1.1 1.1v3c0 .7.4 1.1 1.2 1.1h.3c.8 0 1.2-.4 1.2-1.2v-3.7c0-.6-.2-1-.6-1.5l-1-.9a2 2 0 0 0-1.4-.6zm17.2 0c-.8 0-1.2.4-1.2 1.2v18.7c0 .8.4 1.2 1.2 1.2h.3c.7 0 1.1-.4 1.1-1.2V648l.2-.6c.1-.2.3-.2.5-.2l.4.1.3.5 1.8 6c.2.6.7.9 1.4.9h1.1c.7 0 1.1-.4 1.4-1l1.6-5.6c.1-.4.3-.6.7-.6.1 0 .3 0 .4.2l.2.7v7c0 .7.4 1.1 1.2 1.1h.2c.8 0 1.2-.4 1.2-1.2v-18.7c0-.8-.4-1.2-1.2-1.2h-.5c-.6 0-1 .3-1.3 1l-3.8 12.7c0 .3-.2.5-.3.7l-.4.2c-.2 0-.3 0-.4-.2-.2-.1-.3-.4-.4-.6l-4-12.8c-.2-.7-.6-1-1.3-1zm79.5 0c-.7 0-1 .4-1.2 1l-3.8 18.8v.4c0 .3 0 .5.3.7l.8.2h.4c.6 0 1-.3 1.2-1l.7-3.5c.2-.8.6-1.1 1.3-1.1h4.5c.6 0 1 .3 1.2 1l.7 3.6c.2.7.6 1 1.3 1h.4c.7 0 1-.3 1-.9v-.4l-3.8-18.7c-.2-.7-.6-1-1.3-1zm127.4 0c-.7 0-1.1.4-1.3 1l-3.7 18.8v.4c0 .3 0 .5.2.7l.9.2h.3c.7 0 1.1-.3 1.3-1l.7-3.5c.2-.8.6-1.1 1.3-1.1h4.4c.7 0 1.1.3 1.3 1l.7 3.6c.2.7.6 1 1.3 1h.3c.8 0 1.1-.3 1.1-.9v-.4l-3.8-18.7c-.2-.7-.6-1-1.3-1zm70.1 0c-.6 0-1 .4-1.2 1l-3.8 18.8v.4c0 .3.1.5.3.7l.8.2h.4c.6 0 1-.3 1.2-1l.7-3.5c.2-.8.6-1.1 1.3-1.1h4.5c.6 0 1 .3 1.2 1l.8 3.6c.1.7.5 1 1.2 1h.4c.7 0 1-.3 1-.9v-.4l-3.8-18.7c-.2-.7-.6-1-1.2-1zm16.9 0c-.8 0-1.2.4-1.2 1.2v18.7c0 .8.4 1.2 1.2 1.2h.3c.8 0 1.2-.4 1.2-1.2V650c0-.7.4-1.1 1.2-1.1h1.3c.8 0 1.2.4 1.2 1.1v3.6c0 .6.2 1 .6 1.5l1 1c.3.3.8.5 1.4.5h1c.8 0 1.2-.4 1.2-1.2v-.3c0-.7-.4-1.1-1.1-1.1h-.3c-.7 0-1.1-.4-1.1-1.2v-2.8c0-.7 0-1.1.2-1.1l.8-.6 1-1 .4-.6.1-.8v-7.4c0-.6-.2-1-.6-1.5l-1-1a2 2 0 0 0-1.4-.5zm-344.3 0c-.8 0-1.2.4-1.2 1.2v18.8c0 .8.4 1.2 1.2 1.2h.3c.8 0 1.2-.4 1.2-1.2v-4.9c0-.8.4-1.2 1.2-1.2h4.8c.6 0 1-.2 1.4-.6l1-1c.4-.3.6-.8.6-1.4v-7.9c0-.5-.2-1-.6-1.5l-1-.9a2 2 0 0 0-1.4-.6zm274.1 0c-.7 0-1.1.4-1.1 1.2v18.8c0 .8.4 1.2 1.1 1.2h.4c.7 0 1.1-.4 1.1-1.2v-4.9c0-.8.4-1.2 1.2-1.2h4.8c.6 0 1-.2 1.5-.6l1-1c.3-.3.5-.8.5-1.4v-7.9c0-.5-.2-1-.6-1.5l-1-.9a2 2 0 0 0-1.4-.6zm-86.9 1.9c2.4 0 4.1.7 5.2 2.2 1.1 1.5 1.7 3.6 1.7 6.2 0 2.7-.6 4.8-1.7 6.3-1 1.5-2.8 2.3-5.2 2.3-2.4 0-4.1-.8-5.2-2.3a10.3 10.3 0 0 1-1.7-6.3c0-2.6.6-4.7 1.7-6.2 1-1.5 2.8-2.2 5.2-2.2zm-203.6.7h4c.7 0 1.1.4 1.1 1.2v13.5c0 .8-.4 1.2-1.1 1.2h-4c-.8 0-1.2-.4-1.2-1.2v-13.5c0-.8.4-1.2 1.2-1.2zm-18.7 0h3.9c.8 0 1.2.5 1.2 1.2v5.7c0 .8-.4 1.2-1.2 1.2h-4c-.7 0-1.1-.4-1.1-1.2v-5.7c0-.7.4-1.1 1.2-1.1zm166.9 0c.4 0 .7.4.9 1.2l1.6 7.7v.4c0 .6-.3 1-1 1h-2.9c-.4 0-.6-.1-.8-.3a1 1 0 0 1-.3-.8v-.3l1.6-7.7c.2-.8.5-1.1.9-1.1zm127.4 0c.4 0 .7.4.8 1.2l1.6 7.7v.4c0 .6-.3 1-1 1H647c-.4 0-.7-.1-.9-.3a1 1 0 0 1-.2-.8v-.3l1.6-7.7c.1-.8.4-1.1.9-1.1zm70.1 0c.4 0 .7.4.9 1.2l1.6 7.7v.4c0 .6-.3 1-1 1H717c-.3 0-.6-.1-.8-.3a1 1 0 0 1-.3-.8v-.3l1.6-7.7c.2-.8.5-1.1.9-1.1zm17.7 0h3.9c.8 0 1.2.5 1.2 1.2v5.7c0 .8-.4 1.2-1.2 1.2h-4c-.7 0-1.1-.4-1.1-1.2v-5.7c0-.7.4-1.1 1.2-1.1zm-344.3.1h4c.8 0 1.2.4 1.2 1.2v6.2c0 .7-.5 1.1-1.3 1.1H392c-.8 0-1.1-.4-1.1-1.1v-6.2c0-.8.3-1.2 1.1-1.2zm274.1 0h4c.8 0 1.2.4 1.2 1.2v6.2c0 .7-.4 1.1-1.2 1.1h-4c-.7 0-1.1-.4-1.1-1.1v-6.2c0-.8.4-1.2 1.1-1.2z"/><path id="logo-title-dot" d="M604.1 562.1c1.9-.6 3.2-1.9 4-3.9.7-2 1-5.1 1-9.5v-38.9a29 29 0 0 0-1-9.5c-.8-2-2.1-3.2-4-3.9v-.3h20.5c8.7 0 15.4 2.8 20.1 8.3a34.2 34.2 0 0 1 7.2 23.1c0 7.2-1.2 13.4-3.7 18.6-2.4 5.3-5.9 9.3-10.4 12.1a29.5 29.5 0 0 1-16 4.3H604zm15.5-6.6h1.6a17 17 0 0 0 14.4-7.5c3.6-5 5.5-11.8 5.5-20.2a29 29 0 0 0-5.1-18.1 16.1 16.1 0 0 0-13.5-6.6h-2.9Zm64.7 1c2.2 0 4-1 5.4-2.7a17 17 0 0 0 3.1-7c.7-2.9 1-6 1-9.6a65.4 65.4 0 0 0-4.5-23.4 27 27 0 0 0-5.1-8.5 9.1 9.1 0 0 0-6.8-3.2c-2.3 0-4.1 1-5.5 2.7-1.5 1.7-2.5 4-3.2 6.9-.6 2.9-1 6-1 9.5a66 66 0 0 0 4.5 23.6c1.4 3.5 3.2 6.3 5.2 8.4 2.1 2.2 4.4 3.2 6.9 3.2zM657.5 528c0-10.4 2-18.5 6.1-24.3 4.2-5.9 9.9-8.8 17.2-8.8 4.6 0 8.7 1.5 12.2 4.4 3.5 2.8 6.2 6.8 8.2 12 2 5 2.9 11 2.9 17.9 0 6.7-1 12.7-3 17.9a28 28 0 0 1-8 12 18.7 18.7 0 0 1-12.3 4.3c-4.8 0-8.9-1.4-12.4-4.3-3.5-3-6.2-7-8-12.4a55.6 55.6 0 0 1-3-18.7zm62 34a6 6 0 0 0 3.9-3.9c.7-2 1-5.1 1-9.5v-45.6h-4.1c-2.6 0-4.9.8-7 2.5-2 1.7-3.5 4-4.3 6.8l-.5-.1 2.1-17.2c.3.3 1 .6 1.8.8l3 .2h28.5c1.1 0 2.1 0 3-.2.9-.2 1.5-.5 1.8-.8l2.1 17.2h-.5c-.8-2.8-2.3-5-4.4-6.7-2-1.7-4.3-2.5-6.9-2.5h-4v45.6c0 4.4.3 7.5 1 9.5.8 2 2.1 3.3 4 4v.3h-20.6Zm0 0"/><path id="logo-title-black" d="M406.2 490.8a6 6 0 0 0 3.9-3.9c.7-2 1-5 1-9.3V439c0-4.3-.3-7.4-1-9.4a6 6 0 0 0-3.9-3.8v-.4h23.4c4.8 0 8.7.7 11.7 2s5.1 3 6.5 5.2c1.4 2 2 4.4 2 6.9 0 3.6-1.2 6.5-3.7 8.8a15.3 15.3 0 0 1-9.3 4c6.3 3 10.7 6.5 13.2 10.5a21 21 0 0 1 3.9 11.4c0 3.2-.9 6.1-2.6 8.7-1.6 2.5-4 4.5-6.9 6a22.3 22.3 0 0 1-10 2.1h-28.2zm15.4-6.2h7c4 0 7.3-1.2 9.6-3.5 2.4-2.3 3.6-5.4 3.6-9.3 0-3-.7-5.6-2-7.7-1.5-2-3.2-3.8-5.4-5.4l-6.6-5a32.5 32.5 0 0 1-6.2-6.2zm0-50c0 2.2.4 4.3 1.4 6.3 1 2 2.2 3.5 3.9 4.7a9.1 9.1 0 0 0 5.3 1.7c2 0 3.6-.6 4.9-1.8 1.3-1.2 2-2.8 2-5 0-2.5-1.2-4.6-3.4-6.2a14.5 14.5 0 0 0-8.7-2.4h-5.4zm35 56.2a6 6 0 0 0 4-3.9c.6-2 1-5 1-9.3V439c0-4.3-.4-7.4-1-9.4a6 6 0 0 0-4-3.8v-.4H477v.4a6 6 0 0 0-3.8 3.8c-.8 2-1.1 5.1-1.1 9.4v45.1h8.1a16 16 0 0 0 8.7-2.4c2.6-1.6 4.4-3.8 5.5-6.5l.5.2-3.2 16.9c-.5-.9-1.6-1.3-3.3-1.3h-31.7zm36.3 0a6.8 6.8 0 0 0 3.7-3.2 36 36 0 0 0 2.9-8.2l10.3-39.7c1.2-4.4 1.7-7.7 1.6-9.8-.1-2.1-.8-3.5-2.1-4v-.4H526l14.5 53.9c.9 3.7 1.8 6.3 2.8 8 1 1.6 2.2 2.8 3.7 3.4v.3h-19.9v-.3c1.6-.6 2.6-2 3-4 .4-2 0-5.1-1-9.2l-.7-2.6h-19.6l-.6 2.6c-1 4-1.3 7-1 9.1.3 2 1.3 3.4 3 4v.4h-17.4Zm17.7-22.7h16.2l-8.6-31.2zm61.2 24.2c-7.6 0-13.5-3-17.8-9-4.3-6-6.4-14-6.4-24.4 0-11 2.1-19.6 6.4-25.5 4.3-6 10.4-9 18.4-9 3.4 0 6 .4 7.9 1.2 1.8.7 3.3 1 4.6 1 .7 0 1.2-.2 1.7-.6l.9 18.4-.3.1a24.9 24.9 0 0 0-5.6-9.7c-2.3-2.2-5-3.3-8.1-3.3-4.6 0-8.2 2.4-10.9 7.3a42.8 42.8 0 0 0-3.9 20.1c0 7.7 1.5 13.9 4.3 18.6 2.8 4.7 6.6 7 11.2 7 3 0 5.8-1 8.1-3 2.4-2 4.1-4.8 5.1-8.3h.7l1 10.8c-4.2 5.5-10 8.3-17.3 8.3zm20.5-1.5a6 6 0 0 0 4-3.9c.6-2 1-5 1-9.3V439c0-4.3-.4-7.4-1-9.4a6 6 0 0 0-4-3.8v-.4h20.3v.4a6 6 0 0 0-3.8 3.8c-.8 2-1.1 5.1-1.1 9.4v12.2L617 439c3.4-4.3 5.3-7.4 5.6-9.4.4-2 0-3.2-1.3-3.8v-.4h18.4v.4c-1.6.7-3.2 1.8-5 3.5a64 64 0 0 0-5.8 6.8L623 444l12.3 33.6 3.3 7.5c.9 1.8 1.7 3.1 2.6 4 .8.7 1.8 1.3 3 1.7v.3h-21.1v-.3c1.6-.6 2.5-2 2.7-3.9.3-2-.4-5-1.9-9.3l-9-25-7.3 10.2v14.8c0 4.2.3 7.4 1 9.3a6 6 0 0 0 3.9 3.9v.3h-20.3Zm0 0"/><path id="logo-title-the" d="M307 421.6a6 6 0 0 0 4-3.8c.7-2 1-5.2 1-9.5v-45.6H308c-2.6 0-4.9.9-7 2.5-2 1.7-3.5 4-4.3 6.8l-.5-.1 2.1-17c.3.2 1 .5 1.8.6 1 .2 1.9.2 3 .2h28.5c1 0 2 0 3-.2.8-.1 1.4-.4 1.7-.7l2.1 17.1-.5.1c-.8-2.8-2.3-5.1-4.3-6.8-2-1.6-4.4-2.5-7-2.5h-4v45.6c0 4.3.4 7.5 1.1 9.5.7 2 2 3.2 3.9 3.8v.4h-20.4zm34.6 0a6 6 0 0 0 3.8-3.8c.8-2 1.2-5.2 1.2-9.5v-38.8a29 29 0 0 0-1.2-9.5 6 6 0 0 0-3.8-3.9v-.4H362v.4c-1.8.6-3.2 2-3.9 3.9-.7 2-1 5.1-1 9.5v3.5H377v-3.5a29 29 0 0 0-1.1-9.5 6 6 0 0 0-4-3.9v-.4h20.5v.4c-1.8.6-3.1 2-3.9 3.9-.7 2-1 5.1-1 9.5v38.8c0 4.3.3 7.5 1 9.5.8 2 2 3.2 4 3.8v.4H372v-.4a6 6 0 0 0 3.9-3.8c.7-2 1-5.2 1-9.5v-22H357v22c0 4.3.4 7.5 1.1 9.5.7 2 2 3.2 4 3.8v.4h-20.5ZM357 384h20v-3h-20zm38.7 37.6a6 6 0 0 0 3.9-3.8c.7-2 1-5.2 1-9.5v-38.8a29 29 0 0 0-1-9.5 6 6 0 0 0-4-3.9v-.4H432c.9 0 1.8 0 2.8-.2 1-.1 1.7-.4 2-.7l-6.2 12.6-.3-.1c.4-3.3-1.9-5-6.7-5H411v17.5h.3c.8-1.5 2-2.8 3.3-3.7 1.4-1 3-1.4 4.7-1.4 2 0 4 .5 6 1.4 1.8 1 3.7 1.4 5.6 1.4 2 0 3.4-.8 4.3-2.2h.4a16 16 0 0 1-3.5 6.4 8 8 0 0 1-6.3 3.1c-1.3 0-2.6-.3-3.8-.8l-3.8-1.6a10 10 0 0 0-4-.9c-1.3 0-2.3.5-3.2 1.3V415H423c3.2 0 6.1-.8 8.7-2.4 2.6-1.6 4.5-3.8 5.6-6.5h.4l-3.1 17.2c-.6-.9-1.7-1.3-3.4-1.3h-35.4Zm0 0"/></g></svg>